<svg xmlns="http://www.w3.org/2000/svg" width="59" height="51" viewBox="0 0 59 51">
    <g fill="none" fill-rule="evenodd">
        <path d="M-2-7h64v64H-2z"/>
        <g fill-rule="nonzero" stroke="#656565" stroke-width=".9">
            <path d="M21.572 48.276c3.081-2.269 3.897-6.443 1.994-9.71-.182-.272-.272-.544-.453-.725-.544-.817-.635-1.452-.182-2.36 2.9-5.444 5.347-10.072 7.703-14.609 2.175-4.265 4.532-8.71 7.25-13.792.725-1.361 1.45-2.813 2.175-4.174.091-.091.091-.182.182-.363a1.26 1.26 0 0 0 0-.817c-.091-.182-.182-.272-.272-.363-.09-.09-.272-.09-.363-.09-.181 0-.362 0-.544.09l-.271.181c-1.541.908-3.082 1.906-4.713 2.904-.09.09-.272.182-.362.363-.272.182-.453.363-.725.635a16.742 16.742 0 0 0-2.81 3.358c-.815 1.27-1.722 2.54-2.537 3.81-1.631 2.36-3.172 4.72-4.803 7.079-.182.272-.363.635-.635.907-.906 1.27-1.812 2.722-2.81 4.174-1.087 1.543-1.54 3.267-1.54 5.172 0 1.27-.181 2.541-.362 3.63-.181.907-.635 1.361-1.631 1.633-2.357.545-4.17 2.087-5.166 4.265-.997 2.178-.816 4.628.362 6.715v.09c1.088 1.815 2.81 3.086 4.894 3.54a8.203 8.203 0 0 0 5.619-1.543zm-1.45-18.693c-.634-1.089-.272-2.54.816-3.176 1.087-.635 2.537-.272 3.171.817.635 1.089.272 2.54-.815 3.176-1.088.726-2.538.363-3.172-.817zm-4.169 17.332c-1.178-.363-2.175-1.09-2.81-2.178-1.268-2.268-.543-5.081 1.723-6.443 2.265-1.36 5.075-.544 6.434 1.725 1.269 2.268.544 5.081-1.722 6.442a5.497 5.497 0 0 1-3.625.454zM17.675 23.685c.272-.454.544-.816.816-1.27l-.816-.272c-.906-.363-1.36-.908-1.45-1.815 0-.272-.09-.635-.181-.908-.816-3.72-4.26-6.17-8.066-5.716a7.749 7.749 0 0 0-5.256 3.085C1.544 18.513 1.09 20.6 1.544 22.687v.09c.544 2.36 2.084 4.175 4.26 5.173 2.174.998 4.621.817 6.705-.363.907-.544 1.632-.544 2.266.09.272.273.634.545.997.817.362-1.905.906-3.357 1.903-4.809zm-7.703 1.906c-2.628.635-5.075-.998-5.619-3.54-.272-1.27-.09-2.45.635-3.538.634-1.089 1.721-1.815 2.9-2.087 2.537-.545 5.075.998 5.618 3.539.544 2.631-.997 5.081-3.534 5.626z"/>
        </g>
        <path stroke="#656565" stroke-width=".9" d="M28.473 29.265l4.94 12.365 2.114-4.527 4.408 1.74 1.817-3.968 3.869 1.73 2.135-4.205 3.83 1.842 1.804-4.4 4.838 1.69L45.62 1.013l-3.417 1.4M29.277 7.713l-8.17 3.348 1.967 5.007"/>
        <path stroke="#656565" stroke-linecap="square" stroke-width=".9" d="M39.969 9.567l3.45-1.308M34.529 16.596l9.797-3.8"/>
        <path fill="#656565" d="M46.229 24.655c.259.675.22 1.33-.117 1.963s-.938 1.18-1.8 1.643l.662 1.728-.96.368-.636-1.66c-.556.213-1.11.376-1.664.489-.554.113-1.027.156-1.418.13l-.446-1.162a7.808 7.808 0 0 0 1.597-.096 7.48 7.48 0 0 0 1.536-.389l-1.257-3.276c-1.14.067-1.997-.034-2.57-.304-.573-.27-.989-.742-1.248-1.417-.25-.65-.203-1.28.14-1.89.344-.61.912-1.12 1.705-1.526l-.52-1.356.96-.368.514 1.34a8.075 8.075 0 0 1 2.851-.462l-.012 1.124a8.08 8.08 0 0 0-2.453.344l1.24 3.231c.874-.05 1.55-.032 2.026.055.478.087.866.249 1.167.483.3.235.535.571.703 1.008zm-1.227.582c-.138-.357-.359-.604-.664-.74-.306-.137-.818-.192-1.536-.167l1.112 2.896c1.018-.562 1.381-1.225 1.088-1.989zm-5.843-3.062c.145.377.373.637.683.78.311.142.78.21 1.41.202l-1.107-2.881c-.46.267-.773.565-.937.893-.164.328-.18.663-.049 1.006z"/>
    </g>
</svg>
